<svg width="26" height="22" viewBox="0 0 26 22" fill="none" xmlns="http://www.w3.org/2000/svg">
<path d="M22.2857 0H3.71429C2.72953 0.00106153 1.78541 0.387711 1.08908 1.07511C0.392746 1.76252 0.00107532 2.69453 0 3.66667V18.3333C0.00107532 19.3055 0.392746 20.2375 1.08908 20.9249C1.78541 21.6123 2.72953 21.9989 3.71429 22H22.2857C23.2705 21.9989 24.2146 21.6123 24.9109 20.9249C25.6073 20.2375 25.9989 19.3055 26 18.3333V3.66667C25.9989 2.69453 25.6073 1.76252 24.9109 1.07511C24.2146 0.387711 23.2705 0.00106153 22.2857 0ZM17.6429 3.66667C18.1938 3.66667 18.7324 3.82795 19.1905 4.13013C19.6486 4.4323 20.0057 4.86179 20.2165 5.36429C20.4274 5.86678 20.4825 6.41972 20.375 6.95317C20.2676 7.48661 20.0022 7.97662 19.6127 8.36121C19.2231 8.74581 18.7267 9.00772 18.1863 9.11383C17.6459 9.21994 17.0858 9.16548 16.5768 8.95734C16.0678 8.7492 15.6327 8.39672 15.3266 7.94449C15.0205 7.49225 14.8571 6.96057 14.8571 6.41667C14.8579 5.68755 15.1517 4.98852 15.6739 4.47296C16.1962 3.9574 16.9043 3.66743 17.6429 3.66667ZM3.71429 20.1667C3.22174 20.1667 2.74937 19.9735 2.40109 19.6297C2.05281 19.2859 1.85714 18.8196 1.85714 18.3333V14.4587L7.36125 9.62901C7.8923 9.16406 8.58294 8.91648 9.29247 8.93671C10.002 8.95693 10.677 9.24344 11.18 9.73786L14.9494 13.4509L8.14647 20.1667H3.71429ZM24.1429 18.3333C24.1429 18.8196 23.9472 19.2859 23.5989 19.6297C23.2506 19.9735 22.7783 20.1667 22.2857 20.1667H10.7732L17.8199 13.2103C18.3188 12.7915 18.9519 12.5607 19.6068 12.559C20.2617 12.5574 20.8961 12.7849 21.3972 13.2011L24.1429 15.4596V18.3333Z" fill="#FFBDC8"/>
</svg>
